<?xml version="1.0" encoding="UTF-8"?>
<svg width="18px" height="17px" viewBox="0 0 18 17" version="1.1" xmlns="http://www.w3.org/2000/svg" xmlns:xlink="http://www.w3.org/1999/xlink">
    <!-- Generator: sketchtool 42 (36781) - http://www.bohemiancoding.com/sketch -->
    <title>8FFAA2CB-3F7D-414F-9FFA-1AA47A8126DF</title>
    <desc>Created with sketchtool.</desc>
    <defs></defs>
    <g id="Page-1" stroke="none" stroke-width="1" fill="none" fill-rule="evenodd" fill-opacity="0.799999952" opacity="0.5">
        <g id="Modals" transform="translate(-94.000000, -564.000000)" fill="#FAFAFA">
            <g id="Information-messages" transform="translate(80.000000, 499.000000)">
                <path d="M31.7263465,78.8770763 L24.7243465,66.0500763 C23.9533465,64.6340763 22.0473465,64.6580763 21.2763465,66.0740763 L14.2743465,78.8650763 C13.4993465,80.2920763 14.4583465,82.0000763 15.9983465,82.0000763 L30.0023465,82.0000763 C31.5423465,82.0000763 32.5013465,80.3040763 31.7263465,78.8770763 L31.7263465,78.8770763 Z M24.0003465,78.5000763 C24.0003465,78.7760763 23.8223465,79.0000763 23.5293465,79.0000763 L22.4713465,79.0000763 C22.1783465,79.0000763 22.0003465,78.7760763 22.0003465,78.5000763 L22.0003465,77.5000763 C22.0003465,77.2240763 22.1783465,77.0000763 22.4713465,77.0000763 L23.5293465,77.0000763 C23.8223465,77.0000763 24.0003465,77.2240763 24.0003465,77.5000763 L24.0003465,78.5000763 Z M24.0003465,74.5000763 C24.0003465,74.7760763 23.8223465,75.0000763 23.5293465,75.0000763 L22.4713465,75.0000763 C22.1783465,75.0000763 22.0003465,74.7760763 22.0003465,74.5000763 L22.0003465,70.5000763 C22.0003465,70.2240763 22.1783465,70.0000763 22.4713465,70.0000763 L23.5293465,70.0000763 C23.8223465,70.0000763 24.0003465,70.2240763 24.0003465,70.5000763 L24.0003465,74.5000763 Z" id="iconWarning"></path>
            </g>
        </g>
    </g>
</svg>