<?xml version="1.0" encoding="UTF-8"?>
<svg width="19px" height="18px" viewBox="0 0 19 18" version="1.1" xmlns="http://www.w3.org/2000/svg" xmlns:xlink="http://www.w3.org/1999/xlink">
    <!-- Generator: sketchtool 42 (36781) - http://www.bohemiancoding.com/sketch -->
    <title>CAF33441-1AFB-4B6E-9F71-7E59B90C41C8</title>
    <desc>Created with sketchtool.</desc>
    <defs></defs>
    <g id="Page-1" stroke="none" stroke-width="1" fill="none" fill-rule="evenodd">
        <g id="Control-Elements" transform="translate(-95.000000, -615.000000)" fill="#D50642">
            <g id="Form-I" transform="translate(71.000000, 193.000000)">
                <path d="M42.7104232,436.693309 L35.3197077,423.11184 C34.5059057,421.612553 32.4940943,421.637965 31.6802923,423.137252 L24.2895768,436.680603 C23.4715527,438.191538 24.4837915,440 26.1092845,440 L40.8907155,440 C42.5162085,440 43.5284473,438.204243 42.7104232,436.693309 L42.7104232,436.693309 Z M34.5555149,436.294134 C34.5555149,436.586368 34.3676333,436.823544 34.0583674,436.823544 L32.9416326,436.823544 C32.6323667,436.823544 32.4444851,436.586368 32.4444851,436.294134 L32.4444851,435.235315 C32.4444851,434.943082 32.6323667,434.705906 32.9416326,434.705906 L34.0583674,434.705906 C34.3676333,434.705906 34.5555149,434.943082 34.5555149,435.235315 L34.5555149,436.294134 Z M34.5555149,432.058859 C34.5555149,432.351093 34.3676333,432.588269 34.0583674,432.588269 L32.9416326,432.588269 C32.6323667,432.588269 32.4444851,432.351093 32.4444851,432.058859 L32.4444851,427.823584 C32.4444851,427.53135 32.6323667,427.294175 32.9416326,427.294175 L34.0583674,427.294175 C34.3676333,427.294175 34.5555149,427.53135 34.5555149,427.823584 L34.5555149,432.058859 Z" id="iconWarning"></path>
            </g>
        </g>
    </g>
</svg>