<?xml version="1.0" encoding="UTF-8"?>
<svg width="20px" height="20px" viewBox="0 0 20 20" version="1.1" xmlns="http://www.w3.org/2000/svg" xmlns:xlink="http://www.w3.org/1999/xlink">
    <!-- Generator: sketchtool 42 (36781) - http://www.bohemiancoding.com/sketch -->
    <title>8DF5B0B6-00E0-4B82-B999-EC1DE3781CE2</title>
    <desc>Created with sketchtool.</desc>
    <defs></defs>
    <g id="Page-1" stroke="none" stroke-width="1" fill="none" fill-rule="evenodd" opacity="0.5">
        <g id="Modals" transform="translate(-94.000000, -702.000000)" fill="#FAFAFA">
            <g id="Information-messages" transform="translate(80.000000, 499.000000)">
                <path d="M24,223 C29.5222222,223 34,218.523333 34,213 C34,207.476667 29.5222222,203 24,203 C18.4766667,203 14,207.476667 14,213 C14,218.523333 18.4766667,223 24,223 M23.4444444,216.333333 L24.5555556,216.333333 C24.8622222,216.333333 25.1111111,216.583333 25.1111111,216.888889 L25.1111111,218 C25.1111111,218.305556 24.8622222,218.555556 24.5555556,218.555556 L23.4444444,218.555556 C23.1366667,218.555556 22.8888889,218.305556 22.8888889,218 L22.8888889,216.888889 C22.8888889,216.583333 23.1366667,216.333333 23.4444444,216.333333 M23.4444444,207.444444 L24.5555556,207.444444 C24.8622222,207.444444 25.1111111,207.693333 25.1111111,208 L25.1111111,213.555556 C25.1111111,213.861111 24.8622222,214.111111 24.5555556,214.111111 L23.4444444,214.111111 C23.1366667,214.111111 22.8888889,213.861111 22.8888889,213.555556 L22.8888889,208 C22.8888889,207.693333 23.1366667,207.444444 23.4444444,207.444444" id="iconError"></path>
            </g>
        </g>
    </g>
</svg>