<?xml version="1.0" encoding="UTF-8"?>
<svg width="20px" height="20px" viewBox="0 0 20 20" version="1.1" xmlns="http://www.w3.org/2000/svg" xmlns:xlink="http://www.w3.org/1999/xlink">
    <!-- Generator: sketchtool 42 (36781) - http://www.bohemiancoding.com/sketch -->
    <title>EB02A4C3-3554-4330-9C7E-B9FF0A51939E</title>
    <desc>Created with sketchtool.</desc>
    <defs></defs>
    <g id="Page-1" stroke="none" stroke-width="1" fill="none" fill-rule="evenodd" opacity="0.5">
        <g id="Modals" transform="translate(-94.000000, -632.000000)" fill="#FAFAFA">
            <g id="Information-messages" transform="translate(80.000000, 499.000000)">
                <path d="M24,153 C29.5222222,153 34,148.523333 34,143 C34,137.476667 29.5222222,133 24,133 C18.4766667,133 14,137.476667 14,143 C14,148.523333 18.4766667,153 24,153 M23.4444444,146.333333 L24.5555556,146.333333 C24.8622222,146.333333 25.1111111,146.583333 25.1111111,146.888889 L25.1111111,148 C25.1111111,148.305556 24.8622222,148.555556 24.5555556,148.555556 L23.4444444,148.555556 C23.1366667,148.555556 22.8888889,148.305556 22.8888889,148 L22.8888889,146.888889 C22.8888889,146.583333 23.1366667,146.333333 23.4444444,146.333333 M23.4444444,137.444444 L24.5555556,137.444444 C24.8622222,137.444444 25.1111111,137.693333 25.1111111,138 L25.1111111,143.555556 C25.1111111,143.861111 24.8622222,144.111111 24.5555556,144.111111 L23.4444444,144.111111 C23.1366667,144.111111 22.8888889,143.861111 22.8888889,143.555556 L22.8888889,138 C22.8888889,137.693333 23.1366667,137.444444 23.4444444,137.444444" id="iconInfo" transform="translate(24.000000, 143.000000) scale(1, -1) translate(-24.000000, -143.000000) "></path>
            </g>
        </g>
    </g>
</svg>