<?xml version="1.0" encoding="UTF-8"?>
<svg width="42px" height="42px" viewBox="0 0 42 42" version="1.1" xmlns="http://www.w3.org/2000/svg" xmlns:xlink="http://www.w3.org/1999/xlink">
    <!-- Generator: sketchtool 42 (36781) - http://www.bohemiancoding.com/sketch -->
    <title>3D4DC346-0269-4B4A-A8B9-E103EEC33F00</title>
    <desc>Created with sketchtool.</desc>
    <defs></defs>
    <g id="Page-1" stroke="none" stroke-width="1" fill="none" fill-rule="evenodd">
        <g id="Icons" transform="translate(-822.000000, -1528.000000)" fill="#0F1C39">
            <g id="iconSearchDark" transform="translate(822.000000, 1528.000000)">
                <path d="M41.1634954,37.1249396 L32.7359152,28.6973594 C37.8716104,21.6249868 37.2532736,11.6737315 30.8767049,5.29716276 C27.3449519,1.76587648 22.7160595,0 18.0871672,0 C13.4582748,0 8.82938239,1.76587648 5.29762943,5.29762943 C-1.76587648,12.3611353 -1.76587648,23.813199 5.29762943,30.8767049 C8.82938239,34.4084578 13.4582748,36.1743343 18.0871672,36.1743343 C21.8153879,36.1743343 25.5422086,35.0267946 28.6973594,32.7359152 L37.1249396,41.1634954 C37.6821427,41.7211651 38.4134134,42.0002333 39.1442175,42.0002333 C39.8750215,42.0002333 40.6062923,41.7211651 41.1634954,41.1634954 C42.2788349,40.0486225 42.2788349,38.2402791 41.1634954,37.1249396 Z M8.1247118,28.0496225 C2.63154795,22.5564586 2.63154795,13.6178757 8.1247118,8.1247118 C10.7856599,5.46376369 14.3239462,3.99795554 18.0871672,3.99795554 C21.8503881,3.99795554 25.3886744,5.46329702 28.0496225,8.1247118 C33.5427863,13.6178757 33.5427863,22.5564586 28.0496225,28.0496225 C25.3886744,30.7105706 21.8503881,32.1763788 18.0871672,32.1763788 C14.3239462,32.1763788 10.7861266,30.7105706 8.1247118,28.0496225 Z"></path>
            </g>
        </g>
    </g>
</svg>