<?xml version="1.0" encoding="UTF-8"?>
<svg width="13px" height="13px" viewBox="0 0 13 13" version="1.1" xmlns="http://www.w3.org/2000/svg" xmlns:xlink="http://www.w3.org/1999/xlink">
    <!-- Generator: sketchtool 42 (36781) - http://www.bohemiancoding.com/sketch -->
    <title>5A88FECC-DD54-4AD6-BBF1-5397700A1731</title>
    <desc>Created with sketchtool.</desc>
    <defs></defs>
    <g id="Page-1" stroke="none" stroke-width="1" fill="none" fill-rule="evenodd">
        <g id="SBPLanding" transform="translate(-1082.000000, -28.000000)" fill="#FAFAFA">
            <path d="M1094.74101,39.4909889 L1092.13249,36.8824667 C1093.7221,34.6934111 1093.53071,31.6132778 1091.55702,29.6395889 C1090.46387,28.5465778 1089.03112,28 1087.59838,28 C1086.16563,28 1084.73289,28.5465778 1083.63973,29.6397333 C1081.45342,31.8260444 1081.45342,35.3707111 1083.63973,37.5570222 C1084.73289,38.6501778 1086.16563,39.1967556 1087.59838,39.1967556 C1088.75234,39.1967556 1089.90588,38.8415667 1090.88247,38.1324889 L1093.49099,40.7410111 C1093.66346,40.9136222 1093.8898,41 1094.116,41 C1094.3422,41 1094.56854,40.9136222 1094.74101,40.7410111 C1095.08623,40.3959333 1095.08623,39.8362111 1094.74101,39.4909889 Z M1084.51478,36.6819778 C1082.81452,34.9817222 1082.81452,32.2150333 1084.51478,30.5147778 C1085.3384,29.6911556 1086.43358,29.2374556 1087.59838,29.2374556 C1088.76318,29.2374556 1089.85836,29.6910111 1090.68198,30.5147778 C1092.38223,32.2150333 1092.38223,34.9817222 1090.68198,36.6819778 C1089.85836,37.5056 1088.76318,37.9593 1087.59838,37.9593 C1086.43358,37.9593 1085.33854,37.5056 1084.51478,36.6819778 Z" id="Shape"></path>
        </g>
    </g>
</svg>